<svg id="Layer_1" data-name="Layer 1" xmlns="http://www.w3.org/2000/svg" viewBox="0 0 612 89.9"><defs><style>.cls-1{fill:none;}.cls-2{isolation:isolate;}.cls-3{fill:#fff;}</style></defs><title>crowd-law-text</title><rect id="Artboard1" class="cls-1" width="612" height="89.9"/><g class="cls-2"><path class="cls-3" d="M10.41,398.61c0-21.45,16-36.09,36.61-36.09,14.13,0,22.81,7.32,28,15.69L64.6,383.54A20.72,20.72,0,0,0,47,373.4C33.22,373.4,23,384,23,398.61S33.22,423.82,47,423.82A20.49,20.49,0,0,0,64.6,413.67L75.06,419c-5.33,8.37-13.91,15.69-28,15.69C26.42,434.7,10.41,420.05,10.41,398.61Z" transform="translate(0 -351.1)"/></g><g class="cls-2"><path class="cls-3" d="M124.77,433.45,109.29,407.4H97.15v26.05H84.91V363.67h30.65c13.81,0,22.81,9,22.81,21.86,0,12.45-8.16,19.15-16.53,20.51l17,27.41Zm1-47.92c0-6.69-5-11.09-11.93-11.09H97.15v22.18h16.74C120.8,396.62,125.82,392.23,125.82,385.53Z" transform="translate(0 -351.1)"/></g><g class="cls-2"><path class="cls-3" d="M147.49,398.61c0-20.82,14.75-36.09,35.68-36.09s35.67,15.27,35.67,36.09-14.75,36.09-35.67,36.09S147.49,419.43,147.49,398.61Zm58.8,0c0-14.44-9.11-25.21-23.12-25.21s-23.12,10.77-23.12,25.21,9,25.21,23.12,25.21S206.29,412.94,206.29,398.61Z" transform="translate(0 -351.1)"/></g><g class="cls-2"><path class="cls-3" d="M281.9,433.45,268.3,382l-13.49,51.48H241.73l-20-69.78h13.7l13.6,53.77,14.44-53.77h9.73l14.43,53.77,13.5-53.77h13.7L295,433.45Z" transform="translate(0 -351.1)"/></g><g class="cls-2"><path class="cls-3" d="M323,433.45V363.67H349c21.76,0,36.51,14.43,36.51,34.94S370.75,433.45,349,433.45ZM373,398.61c0-13.5-8.37-24.17-24-24.17H335.28v48.23H349C364.16,422.67,373,411.79,373,398.61Z" transform="translate(0 -351.1)"/></g><g class="cls-2"><path class="cls-3" d="M399.1,433.45V363.67h3.35v66.64H437.5v3.14Z" transform="translate(0 -351.1)"/></g><g class="cls-2"><path class="cls-3" d="M502.54,433.45l-7.75-18.73H455.88l-7.74,18.73h-3.87l29.08-69.78h4l29.09,69.78Zm-27.2-65.91-18.21,44h36.41Z" transform="translate(0 -351.1)"/></g><g class="cls-2"><path class="cls-3" d="M566,433.45l-18.1-63.51-18.1,63.51h-4L506,363.67h3.66l18.2,64.75,18.31-64.75h3.56L568,428.42l18.2-64.75h3.66L570,433.45Z" transform="translate(0 -351.1)"/></g></svg>